# xmcd
#
# Track frame offsets:
#	150
#	25608
#	52933
#	73378
#	96812
#	117426
#	140885
#	164847
#	192715
#	217039
#
# Disc length: 3140 seconds
#
# Revision: 1
# Processed by: cddbd v1.5.2PL0 Copyright (c) Steve Scherf et al.
# Submitted via: EZCDAudioConverter 8.0.2.1
#
DISCID=a20c420a
DTITLE=Cẩm Ly, Quốc Đại - st. Minh Vy. Người Tình Quê
DYEAR=2013
DGENRE=Blues
TTITLE0=Cẩm Ly - Người Tình Quê
TTITLE1=Quốc Đại - Xa quê
TTITLE2=Cẩm Ly - Hương lúa miền Nam
TTITLE3=Quốc Đại - Ruột tím gan bầm
TTITLE4=Cẩm Ly, Quốc Đại - Anh đi giữ vườn
TTITLE5=Cẩm Ly - Cha già
TTITLE6=Quốc Đại - Nhớ ai
TTITLE7=Cẩm Ly, Quốc Đại - Tiễn người sang ngang
TTITLE8=Quốc Đại - Dã tràng Biển Đông
TTITLE9=Cẩm Ly - Cô Tư bánh tét
EXTD=
EXTT0=
EXTT1=
EXTT2=
EXTT3=
EXTT4=
EXTT5=
EXTT6=
EXTT7=
EXTT8=
EXTT9=
PLAYORDER=
